<svg width="25" height="24" viewBox="0 0 25 24" fill="none" xmlns="http://www.w3.org/2000/svg">
<path d="M17.5749 2H7.54007C4.76902 2 2.52264 4.23858 2.52264 7V17C2.52264 19.7614 4.76902 22 7.54007 22H17.5749C20.346 22 22.5923 19.7614 22.5923 17V7C22.5923 4.23858 20.346 2 17.5749 2Z" stroke="white" stroke-width="2" stroke-linecap="round" stroke-linejoin="round"/>
<path d="M16.5714 11.3698C16.6953 12.2021 16.5526 13.052 16.1638 13.7988C15.7749 14.5456 15.1597 15.1512 14.4055 15.5295C13.6514 15.9077 12.7968 16.0394 11.9632 15.9057C11.1297 15.7721 10.3596 15.3799 9.76263 14.785C9.16564 14.1901 8.77209 13.4227 8.63796 12.592C8.50383 11.7614 8.63595 10.9097 9.01553 10.1582C9.39511 9.40667 10.0028 8.79355 10.7522 8.40605C11.5016 8.01856 12.3545 7.8764 13.1897 7.99981C14.0416 8.1257 14.8302 8.52128 15.4392 9.12812C16.0482 9.73496 16.4451 10.5209 16.5714 11.3698Z" stroke="white" stroke-width="2" stroke-linecap="round" stroke-linejoin="round"/>
<path d="M18.0767 6.5H18.0867" stroke="white" stroke-width="2" stroke-linecap="round" stroke-linejoin="round"/>
</svg>
