<svg width="76" height="76" viewBox="0 0 76 76" fill="none" xmlns="http://www.w3.org/2000/svg">
<circle cx="38" cy="38" r="38" fill="white"/>
<path d="M46.3333 53V49.6667C46.3333 47.8986 45.6309 46.2029 44.3807 44.9526C43.1305 43.7024 41.4348 43 39.6666 43H26.3333C24.5652 43 22.8695 43.7024 21.6193 44.9526C20.369 46.2029 19.6667 47.8986 19.6667 49.6667V53" stroke="#1E1E1E" stroke-width="2.5" stroke-linecap="round" stroke-linejoin="round"/>
<path d="M33 36.3333C36.6819 36.3333 39.6667 33.3486 39.6667 29.6667C39.6667 25.9848 36.6819 23 33 23C29.3181 23 26.3333 25.9848 26.3333 29.6667C26.3333 33.3486 29.3181 36.3333 33 36.3333Z" stroke="#1E1E1E" stroke-width="2.5" stroke-linecap="round" stroke-linejoin="round"/>
<path d="M56.3333 53V49.6667C56.3322 48.1896 55.8406 46.7546 54.9356 45.5872C54.0306 44.4198 52.7636 43.586 51.3333 43.2167" stroke="#1E1E1E" stroke-width="2.5" stroke-linecap="round" stroke-linejoin="round"/>
<path d="M44.6667 23.2167C46.1007 23.5838 47.3717 24.4178 48.2794 25.5872C49.1871 26.7565 49.6797 28.1947 49.6797 29.675C49.6797 31.1553 49.1871 32.5935 48.2794 33.7628C47.3717 34.9322 46.1007 35.7662 44.6667 36.1333" stroke="#1E1E1E" stroke-width="2.5" stroke-linecap="round" stroke-linejoin="round"/>
</svg>
