<svg width="54" height="54" viewBox="0 0 54 54" fill="none" xmlns="http://www.w3.org/2000/svg">
<circle cx="27" cy="27" r="27" fill="#1E1E1E"/>
<path d="M27.452 37.3645C26.48 37.3645 25.562 37.1755 24.698 36.7975C23.834 36.4195 23.0825 35.884 22.4435 35.191C21.8135 34.498 21.359 33.679 21.08 32.734L24.2255 31.8835C24.4505 32.6575 24.86 33.256 25.454 33.679C26.057 34.093 26.7185 34.2955 27.4385 34.2865C28.0775 34.2865 28.649 34.138 29.153 33.841C29.657 33.544 30.053 33.1435 30.341 32.6395C30.629 32.1265 30.773 31.555 30.773 30.925C30.773 29.962 30.4625 29.1565 29.8415 28.5085C29.2205 27.8605 28.4195 27.5365 27.4385 27.5365C27.1415 27.5365 26.849 27.577 26.561 27.658C26.282 27.739 26.012 27.8515 25.751 27.9955L24.266 25.4305L30.8 19.8415L31.0835 20.6245H21.836V17.56H33.7565V20.638L28.505 25.687L28.478 24.7285C29.657 24.8095 30.6605 25.138 31.4885 25.714C32.3255 26.29 32.9645 27.0325 33.4055 27.9415C33.8555 28.8505 34.0805 29.845 34.0805 30.925C34.0805 32.149 33.779 33.247 33.176 34.219C32.582 35.191 31.781 35.9605 30.773 36.5275C29.774 37.0855 28.667 37.3645 27.452 37.3645Z" fill="white"/>
</svg>
