<svg width="26" height="24" viewBox="0 0 26 24" fill="none" xmlns="http://www.w3.org/2000/svg">
<g clip-path="url(#clip0_12_985)">
<path d="M24.0488 2.9998C23.0878 3.67528 22.0238 4.19191 20.8978 4.5298C20.2935 3.83731 19.4903 3.34649 18.5969 3.12373C17.7035 2.90096 16.763 2.957 15.9026 3.28426C15.0422 3.61151 14.3034 4.1942 13.7861 4.95352C13.2689 5.71283 12.9981 6.61214 13.0104 7.5298V8.5298C11.2469 8.57537 9.49952 8.18561 7.92378 7.39525C6.34804 6.60488 4.99291 5.43844 3.97908 3.9998C3.97908 3.9998 -0.0348616 12.9998 8.9965 16.9998C6.92985 18.3978 4.46793 19.0987 1.97211 18.9998C11.0035 23.9998 22.0418 18.9998 22.0418 7.4998C22.0409 7.22126 22.014 6.9434 21.9615 6.6698C22.9857 5.6633 23.7084 4.39251 24.0488 2.9998V2.9998Z" stroke="white" stroke-width="2" stroke-linecap="round" stroke-linejoin="round"/>
</g>
<defs>
<clipPath id="clip0_12_985">
<rect width="24.0836" height="24" fill="white" transform="translate(0.968628)"/>
</clipPath>
</defs>
</svg>
