<svg width="54" height="54" viewBox="0 0 54 54" fill="none" xmlns="http://www.w3.org/2000/svg">
<circle cx="27" cy="27" r="27" fill="#1E1E1E"/>
<path d="M21.35 36.973V34.138L29.666 26.7265C30.314 26.1505 30.764 25.606 31.016 25.093C31.268 24.58 31.394 24.085 31.394 23.608C31.394 22.96 31.2545 22.384 30.9755 21.88C30.6965 21.367 30.3095 20.962 29.8145 20.665C29.3285 20.368 28.766 20.2195 28.127 20.2195C27.452 20.2195 26.8535 20.377 26.3315 20.692C25.8185 20.998 25.418 21.4075 25.13 21.9205C24.842 22.4335 24.707 22.987 24.725 23.581H21.377C21.377 22.285 21.665 21.1555 22.241 20.1925C22.826 19.2295 23.627 18.4825 24.644 17.9515C25.67 17.4205 26.8535 17.155 28.1945 17.155C29.4365 17.155 30.5525 17.434 31.5425 17.992C32.5325 18.541 33.311 19.306 33.878 20.287C34.445 21.259 34.7285 22.3795 34.7285 23.6485C34.7285 24.5755 34.6025 25.354 34.3505 25.984C34.0985 26.614 33.7205 27.1945 33.2165 27.7255C32.7215 28.2565 32.105 28.846 31.367 29.494L25.4675 34.7185L25.1705 33.9085H34.7285V36.973H21.35Z" fill="white"/>
</svg>
