<svg width="25" height="24" viewBox="0 0 25 24" fill="none" xmlns="http://www.w3.org/2000/svg">
<g clip-path="url(#clip0_12_982)">
<path d="M23.3607 6.42C23.2415 5.94541 22.9988 5.51057 22.657 5.15941C22.3151 4.80824 21.8864 4.55318 21.414 4.42C19.688 4 12.784 4 12.784 4C12.784 4 5.88005 4 4.15405 4.46C3.68166 4.59318 3.2529 4.84824 2.91108 5.19941C2.56927 5.55057 2.3265 5.98541 2.20729 6.46C1.89141 8.20556 1.7369 9.97631 1.74569 11.75C1.73443 13.537 1.88896 15.3213 2.20729 17.08C2.33871 17.5398 2.58692 17.9581 2.92794 18.2945C3.26896 18.6308 3.69127 18.8738 4.15405 19C5.88005 19.46 12.784 19.46 12.784 19.46C12.784 19.46 19.688 19.46 21.414 19C21.8864 18.8668 22.3151 18.6118 22.657 18.2606C22.9988 17.9094 23.2415 17.4746 23.3607 17C23.6742 15.2676 23.8287 13.5103 23.8223 11.75C23.8336 9.96295 23.6791 8.1787 23.3607 6.42V6.42Z" stroke="white" stroke-width="2" stroke-linecap="round" stroke-linejoin="round"/>
<path d="M10.5262 15.02L16.2962 11.75L10.5262 8.47998V15.02Z" stroke="white" stroke-width="2" stroke-linecap="round" stroke-linejoin="round"/>
</g>
<defs>
<clipPath id="clip0_12_982">
<rect width="24.0836" height="24" fill="white" transform="translate(0.742188)"/>
</clipPath>
</defs>
</svg>
